<svg width="250" height="200" viewBox="0 0 250 200" xmlns="http://www.w3.org/2000/svg">
  <rect width="250" height="200" fill="#0a0a0a"/>
  
  <!-- Space background -->
  <circle cx="20" cy="20" r="1" fill="#FFFFFF"/>
  <circle cx="60" cy="15" r="1" fill="#FFFFFF"/>
  <circle cx="120" cy="25" r="1" fill="#FFFFFF"/>
  <circle cx="180" cy="30" r="1" fill="#FFFFFF"/>
  <circle cx="220" cy="15" r="1" fill="#FFFFFF"/>
  <circle cx="30" cy="180" r="1" fill="#FFFFFF"/>
  <circle cx="200" cy="170" r="1" fill="#FFFFFF"/>
  
  <!-- Triangular ship (center) -->
  <g transform="translate(125, 100)">
    <path d="M 0,-15 L -10,10 L 10,10 Z" fill="#00FFFF" stroke="#00FFFF" stroke-width="2"/>
    <circle cx="0" cy="0" r="2" fill="#FFFF00"/>
    <!-- Thrust -->
    <path d="M -4,10 L 0,18 L 4,10" fill="#FF00FF" opacity="0.8">
      <animate attributeName="opacity" values="0.8;0.3;0.8" dur="0.3s" repeatCount="indefinite"/>
    </path>
  </g>
  
  <!-- Large asteroid -->
  <g transform="translate(60, 60)">
    <path d="M -20,-15 L -15,-22 L -5,-25 L 8,-20 L 18,-15 L 22,-5 L 20,8 L 15,18 L 5,22 L -8,20 L -18,15 L -22,5 L -20,-5 Z" fill="none" stroke="#00FF00" stroke-width="2"/>
    <path d="M -10,-10 L -5,-15 L 5,-12 L 10,-8 L 8,5 L 2,10 L -5,8 L -12,2 Z" fill="none" stroke="#00FF00" stroke-width="1" opacity="0.6"/>
  </g>
  
  <!-- Medium asteroid -->
  <g transform="translate(180, 140)">
    <path d="M -12,-10 L -8,-15 L 0,-16 L 8,-12 L 15,-8 L 16,0 L 12,8 L 8,15 L 0,16 L -8,12 L -15,8 L -16,0 Z" fill="none" stroke="#FF00FF" stroke-width="2"/>
    <path d="M -6,-6 L 0,-8 L 6,-6 L 8,0 L 6,6 L 0,8 L -6,6 L -8,0 Z" fill="none" stroke="#FF00FF" stroke-width="1" opacity="0.6"/>
  </g>
  
  <!-- Small asteroid -->
  <g transform="translate(200, 50)">
    <path d="M -8,-6 L -4,-10 L 2,-9 L 8,-6 L 10,0 L 8,6 L 2,9 L -4,10 L -8,6 L -10,0 Z" fill="none" stroke="#FFFF00" stroke-width="2"/>
  </g>
  
  <!-- Laser shots -->
  <rect x="124" y="85" width="2" height="10" fill="#00FFFF">
    <animate attributeName="y" values="85;20" dur="0.8s" repeatCount="indefinite"/>
  </rect>
  
  <!-- Asteroid fragments -->
  <g transform="translate(40, 120)" opacity="0.8">
    <path d="M -3,-3 L 0,-6 L 3,-3 L 6,0 L 3,3 L 0,6 L -3,3 L -6,0 Z" fill="none" stroke="#00FF00" stroke-width="1">
      <animateTransform attributeName="transform" type="rotate" values="0;360" dur="2s" repeatCount="indefinite"/>
    </path>
  </g>
  
  <g transform="translate(220, 120)" opacity="0.8">
    <path d="M -2,-2 L 0,-4 L 2,-2 L 4,0 L 2,2 L 0,4 L -2,2 L -4,0 Z" fill="none" stroke="#FFFF00" stroke-width="1">
      <animateTransform attributeName="transform" type="rotate" values="360;0" dur="1.5s" repeatCount="indefinite"/>
    </path>
  </g>
  
  <!-- Explosion effect -->
  <g transform="translate(180, 140)" opacity="0.5">
    <circle cx="0" cy="0" r="5" fill="none" stroke="#FF00FF" stroke-width="1">
      <animate attributeName="r" values="5;20;5" dur="2s" repeatCount="indefinite"/>
      <animate attributeName="opacity" values="0.5;0.1;0.5" dur="2s" repeatCount="indefinite"/>
    </circle>
  </g>
</svg>