<svg width="250" height="200" viewBox="0 0 250 200" xmlns="http://www.w3.org/2000/svg">
  <rect width="250" height="200" fill="#0a0a0a"/>
  
  <!-- Platform structure -->
  <rect x="20" y="180" width="210" height="8" fill="#00FFFF"/>
  <rect x="40" y="140" width="170" height="8" fill="#00FFFF"/>
  <rect x="60" y="100" width="130" height="8" fill="#00FFFF"/>
  <rect x="80" y="60" width="90" height="8" fill="#00FFFF"/>
  
  <!-- Ladders -->
  <g stroke="#FFFF00" stroke-width="2" fill="none">
    <line x1="30" y1="140" x2="30" y2="180"/>
    <line x1="220" y1="140" x2="220" y2="180"/>
    <line x1="50" y1="100" x2="50" y2="140"/>
    <line x1="200" y1="100" x2="200" y2="140"/>
    <line x1="70" y1="60" x2="70" y2="100"/>
    <line x1="180" y1="60" x2="180" y2="100"/>
    <!-- Ladder rungs -->
    <line x1="26" y1="150" x2="34" y2="150"/>
    <line x1="26" y1="160" x2="34" y2="160"/>
    <line x1="26" y1="170" x2="34" y2="170"/>
    <line x1="46" y1="110" x2="54" y2="110"/>
    <line x1="46" y1="120" x2="54" y2="120"/>
    <line x1="46" y1="130" x2="54" y2="130"/>
    <line x1="66" y1="70" x2="74" y2="70"/>
    <line x1="66" y1="80" x2="74" y2="80"/>
    <line x1="66" y1="90" x2="74" y2="90"/>
  </g>
  
  <!-- Character (Mario-like) -->
  <g transform="translate(125, 120)">
    <!-- Body -->
    <rect x="-6" y="-5" width="12" height="15" fill="#FF00FF" rx="2"/>
    <!-- Head -->
    <circle cx="0" cy="-12" r="8" fill="#FFFF00"/>
    <!-- Hat -->
    <ellipse cx="0" cy="-18" rx="10" ry="4" fill="#00FF00"/>
    <!-- Arms -->
    <circle cx="-8" cy="0" r="3" fill="#FFFF00"/>
    <circle cx="8" cy="0" r="3" fill="#FFFF00"/>
    <!-- Legs -->
    <rect x="-8" y="8" width="6" height="8" fill="#00FFFF"/>
    <rect x="2" y="8" width="6" height="8" fill="#00FFFF"/>
  </g>
  
  <!-- Barrels -->
  <g transform="translate(100, 160)">
    <ellipse cx="0" cy="0" rx="12" ry="8" fill="#FF00FF" stroke="#FF00FF" stroke-width="1"/>
    <line x1="-8" y1="-4" x2="8" y2="-4" stroke="#0a0a0a" stroke-width="1"/>
    <line x1="-8" y1="0" x2="8" y2="0" stroke="#0a0a0a" stroke-width="1"/>
    <line x1="-8" y1="4" x2="8" y2="4" stroke="#0a0a0a" stroke-width="1"/>
    <animateTransform attributeName="transform" type="translate" values="100,160;120,160;140,160;160,140;180,140;200,140;220,100" dur="3s" repeatCount="indefinite"/>
  </g>
  
  <g transform="translate(80, 120)">
    <ellipse cx="0" cy="0" rx="12" ry="8" fill="#00FF00" stroke="#00FF00" stroke-width="1"/>
    <line x1="-8" y1="-4" x2="8" y2="-4" stroke="#0a0a0a" stroke-width="1"/>
    <line x1="-8" y1="0" x2="8" y2="0" stroke="#0a0a0a" stroke-width="1"/>
    <line x1="-8" y1="4" x2="8" y2="4" stroke="#0a0a0a" stroke-width="1"/>
    <animateTransform attributeName="transform" type="translate" values="80,120;100,120;120,120;140,100;160,100;180,100;200,60" dur="2.5s" repeatCount="indefinite"/>
  </g>
  
  <!-- Donkey Kong silhouette at top -->
  <g transform="translate(125, 40)">
    <ellipse cx="0" cy="0" rx="20" ry="15" fill="#FFFF00" opacity="0.8"/>
    <circle cx="-8" cy="-5" r="3" fill="#0a0a0a"/>
    <circle cx="8" cy="-5" r="3" fill="#0a0a0a"/>
    <ellipse cx="0" cy="5" rx="8" ry="4" fill="#0a0a0a"/>
  </g>
  
  <!-- Score/bonus items -->
  <g transform="translate(90, 80)">
    <path d="M -4,-6 L 4,-6 L 6,-2 L 4,2 L 2,6 L -2,6 L -4,2 L -6,-2 Z" fill="#00FFFF">
      <animate attributeName="opacity" values="1;0.3;1" dur="1s" repeatCount="indefinite"/>
    </path>
  </g>
  
  <g transform="translate(160, 80)">
    <circle cx="0" cy="0" r="4" fill="#FFFF00">
      <animate attributeName="opacity" values="1;0.3;1" dur="1.2s" repeatCount="indefinite"/>
    </circle>
  </g>
</svg>