<svg width="250" height="200" viewBox="0 0 250 200" xmlns="http://www.w3.org/2000/svg">
  <rect width="250" height="200" fill="#0a0a0a"/>
  
  <!-- Background maze lines -->
  <g stroke="#00FFFF" stroke-width="3" fill="none" opacity="0.3">
    <rect x="20" y="20" width="210" height="160"/>
    <line x1="50" y1="20" x2="50" y2="50"/>
    <line x1="80" y1="50" x2="80" y2="80"/>
    <line x1="120" y1="20" x2="120" y2="50"/>
    <line x1="150" y1="50" x2="150" y2="80"/>
    <line x1="180" y1="20" x2="180" y2="50"/>
    <line x1="50" y1="150" x2="50" y2="180"/>
    <line x1="80" y1="120" x2="80" y2="150"/>
    <line x1="120" y1="150" x2="120" y2="180"/>
    <line x1="150" y1="120" x2="150" y2="150"/>
    <line x1="180" y1="150" x2="180" y2="180"/>
  </g>
  
  <!-- Pac-Man character -->
  <g transform="translate(125, 100)">
    <circle cx="0" cy="0" r="35" fill="#FFFF00" stroke="#FFFF00" stroke-width="2"/>
    <path d="M 0,0 L 25,-15 A 35,35 0 0,1 25,15 Z" fill="#0a0a0a"/>
  </g>
  
  <!-- Dots -->
  <circle cx="60" cy="100" r="3" fill="#00FFFF"/>
  <circle cx="190" cy="100" r="3" fill="#00FFFF"/>
  <circle cx="125" cy="60" r="3" fill="#00FFFF"/>
  <circle cx="125" cy="140" r="3" fill="#00FFFF"/>
  
  <!-- Power pellets -->
  <circle cx="40" cy="40" r="6" fill="#FF00FF">
    <animate attributeName="opacity" values="1;0.3;1" dur="1s" repeatCount="indefinite"/>
  </circle>
  <circle cx="210" cy="160" r="6" fill="#FF00FF">
    <animate attributeName="opacity" values="1;0.3;1" dur="1s" repeatCount="indefinite"/>
  </circle>
  
  <!-- Ghost -->
  <g transform="translate(200, 60)">
    <path d="M -15,-20 A 15,15 0 0,1 15,-20 L 15,15 L 10,10 L 5,15 L 0,10 L -5,15 L -10,10 L -15,15 Z" fill="#00FF00" stroke="#00FF00" stroke-width="1"/>
    <circle cx="-7" cy="-10" r="3" fill="#0a0a0a"/>
    <circle cx="7" cy="-10" r="3" fill="#0a0a0a"/>
  </g>
</svg>