<svg width="250" height="200" viewBox="0 0 250 200" xmlns="http://www.w3.org/2000/svg">
  <rect width="250" height="200" fill="#0a0a0a"/>
  
  <!-- Stars background -->
  <circle cx="30" cy="30" r="1" fill="#FFFFFF"/>
  <circle cx="80" cy="20" r="1" fill="#FFFFFF"/>
  <circle cx="150" cy="40" r="1" fill="#FFFFFF"/>
  <circle cx="200" cy="25" r="1" fill="#FFFFFF"/>
  <circle cx="220" cy="60" r="1" fill="#FFFFFF"/>
  <circle cx="40" cy="180" r="1" fill="#FFFFFF"/>
  <circle cx="180" cy="170" r="1" fill="#FFFFFF"/>
  
  <!-- Player ship -->
  <g transform="translate(125, 160)">
    <path d="M 0,-15 L -12,10 L -8,10 L -5,15 L 5,15 L 8,10 L 12,10 Z" fill="#00FFFF" stroke="#00FFFF" stroke-width="1"/>
    <path d="M -3,-10 L 3,-10 L 0,-5 Z" fill="#FFFF00"/>
  </g>
  
  <!-- Alien invaders -->
  <g transform="translate(60, 80)">
    <path d="M -10,-8 L -8,-12 L -4,-12 L -2,-10 L 2,-10 L 4,-12 L 8,-12 L 10,-8 L 8,-4 L 6,-2 L 4,-4 L 2,0 L -2,0 L -4,-4 L -6,-2 L -8,-4 Z" fill="#FF00FF" stroke="#FF00FF" stroke-width="1"/>
    <rect x="-6" y="-6" width="2" height="2" fill="#0a0a0a"/>
    <rect x="4" y="-6" width="2" height="2" fill="#0a0a0a"/>
  </g>
  
  <g transform="translate(125, 80)">
    <path d="M -10,-8 L -8,-12 L -4,-12 L -2,-10 L 2,-10 L 4,-12 L 8,-12 L 10,-8 L 8,-4 L 6,-2 L 4,-4 L 2,0 L -2,0 L -4,-4 L -6,-2 L -8,-4 Z" fill="#00FF00" stroke="#00FF00" stroke-width="1"/>
    <rect x="-6" y="-6" width="2" height="2" fill="#0a0a0a"/>
    <rect x="4" y="-6" width="2" height="2" fill="#0a0a0a"/>
  </g>
  
  <g transform="translate(190, 80)">
    <path d="M -10,-8 L -8,-12 L -4,-12 L -2,-10 L 2,-10 L 4,-12 L 8,-12 L 10,-8 L 8,-4 L 6,-2 L 4,-4 L 2,0 L -2,0 L -4,-4 L -6,-2 L -8,-4 Z" fill="#FFFF00" stroke="#FFFF00" stroke-width="1"/>
    <rect x="-6" y="-6" width="2" height="2" fill="#0a0a0a"/>
    <rect x="4" y="-6" width="2" height="2" fill="#0a0a0a"/>
  </g>
  
  <!-- Laser shots -->
  <rect x="124" y="140" width="2" height="8" fill="#00FFFF">
    <animate attributeName="y" values="140;60" dur="0.5s" repeatCount="indefinite"/>
  </rect>
  <rect x="189" y="100" width="2" height="6" fill="#FF00FF">
    <animate attributeName="y" values="100;180" dur="0.8s" repeatCount="indefinite"/>
  </rect>
  
  <!-- Explosion effect -->
  <g transform="translate(60, 40)" opacity="0.7">
    <circle cx="0" cy="0" r="8" fill="none" stroke="#FFFF00" stroke-width="2">
      <animate attributeName="r" values="0;15;0" dur="1.5s" repeatCount="indefinite"/>
    </circle>
  </g>
</svg>